<svg
  viewBox="0 0 24 24"
  fill="currentColor"
  xmlns="http://www.w3.org/2000/svg"
>
  <path d="M13.958 10.09c0 1.232.029 2.256-.591 3.351-.502.891-1.301 1.438-2.186 1.438-1.214 0-1.922-.924-1.922-2.292 0-2.692 2.415-3.182 4.7-3.182v.685zm3.186 7.705c-.209.189-.512.201-.745.076-1.047-.872-1.234-1.276-1.814-2.106-1.734 1.767-2.962 2.297-5.209 2.297-2.66 0-4.731-1.641-4.731-4.925 0-2.565 1.391-4.309 3.37-5.164 1.715-.754 4.11-.891 5.942-1.095v-.41c0-.753.06-1.642-.384-2.294-.385-.579-1.124-.82-1.775-.82-1.205 0-2.277.618-2.54 1.897-.054.285-.261.567-.549.582l-3.061-.333c-.259-.056-.548-.266-.472-.66C5.977 2.449 8.818 1.5 11.37 1.5c1.307 0 3.015.348 4.044 1.337C16.669 3.986 16.5 5.62 16.5 7.395v4.712c0 1.417.587 2.039 1.14 2.804.194.271.237.596-.01.799l-2.486 2.085zm3.606 3.85c-4.698 3.3-11.506 5.055-17.362 2.685C1.271 23.16.5 22.266.5 21.277c0-.66.287-1.296.764-1.738.344-.318.742-.449 1.113-.301 2.17.867 4.503 1.394 6.862 1.394 3.145 0 6.27-.814 9.008-2.39.44-.254.875-.098 1.065.214.237.39.109.87-.562 1.189z"/>
</svg>